<?xml version="1.0" encoding="utf-8"?>
<!-- Generator: Adobe Illustrator 23.0.1, SVG Export Plug-In . SVG Version: 6.00 Build 0)  -->
<svg version="1.1" id="Layer_1" xmlns="http://www.w3.org/2000/svg" xmlns:xlink="http://www.w3.org/1999/xlink" x="0px" y="0px"
	 viewBox="0 0 640 640" style="enable-background:new 0 0 640 640;" xml:space="preserve">
<style type="text/css">
	.st0{fill:#FFFFFF;}
</style>
<g>
	<path class="st0" d="M549.5,77.2c6,0,11,5,11,11V610c0,6-5,11-11,11h-459c-6,0-11-5-11-11V88.2c0-6,5-11,11-11H549.5 M549.5,58.2
		h-459c-16.5,0-30,13.5-30,30V610c0,16.5,13.5,30,30,30h459c16.5,0,30-13.5,30-30V88.2C579.5,71.7,566,58.2,549.5,58.2L549.5,58.2z"
		/>
</g>
<g>
	<g>
		<g>
			<path class="st0" d="M501.9,196.3c0,2.8-2.3,5-5,5H140.4c-2.8,0-5-2.3-5-5v-19.4c0-2.8,2.3-5,5-5h356.5c2.8,0,5,2.3,5,5
				L501.9,196.3L501.9,196.3z"/>
		</g>
		<g>
			<path class="st0" d="M499.2,392.9c0,2.8-2.3,5-5,5H137.7c-2.8,0-5-2.3-5-5v-19.4c0-2.8,2.3-5,5-5h356.5c2.8,0,5,2.3,5,5V392.9z"
				/>
		</g>
		<g>
			<path class="st0" d="M501.9,261.8c0,2.8-2.3,5-5,5H140.4c-2.8,0-5-2.3-5-5v-19.4c0-2.8,2.3-5,5-5h356.5c2.8,0,5,2.3,5,5
				L501.9,261.8L501.9,261.8z"/>
		</g>
		<g>
			<path class="st0" d="M499.2,327.4c0,2.8-2.3,5-5,5H137.7c-2.8,0-5-2.3-5-5v-19.4c0-2.8,2.3-5,5-5h356.5c2.8,0,5,2.3,5,5V327.4z"
				/>
		</g>
		<g>
			<path class="st0" d="M501.9,458.5c0,2.8-2.3,5-5,5H140.4c-2.8,0-5-2.3-5-5V439c0-2.8,2.3-5,5-5h356.5c2.8,0,5,2.3,5,5
				L501.9,458.5L501.9,458.5z"/>
		</g>
		<g>
			<path class="st0" d="M501.9,524c0,2.8-2.3,5-5,5H140.4c-2.8,0-5-2.3-5-5v-19.4c0-2.8,2.3-5,5-5h356.5c2.8,0,5,2.3,5,5L501.9,524
				L501.9,524z"/>
		</g>
	</g>
</g>
<g>
	<g>
		<path class="st0" d="M428.3,93.7c0,5.5-4.5,10-10,10h-202c-5.5,0-10-4.5-10-10V45.4c0-5.5,4.5-10,10-10h202c5.5,0,10,4.5,10,10
			V93.7z"/>
	</g>
	<path class="st0" d="M258.5,57.5C258.5,25.8,284.2,0,316,0s57.5,25.8,57.5,57.5"/>
</g>
</svg>
